<svg version="1.1" id="Layer_1" xmlns="http://www.w3.org/2000/svg" xmlns:xlink="http://www.w3.org/1999/xlink" x="0px" y="0px"
	 width="100%" viewBox="0 0 2000 2000" enable-background="new 0 0 2000 2000" xml:space="preserve">
<path fill="#000000" opacity="1.000000" stroke="none" 
	d="
M1264.000000,2001.000000 
	C842.666687,2001.000000 421.833344,2001.000000 1.000000,2001.000000 
	C1.000000,1334.333374 1.000000,667.666687 1.000000,1.000000 
	C667.666687,1.000000 1334.333374,1.000000 2001.000000,1.000000 
	C2001.000000,667.666687 2001.000000,1334.333374 2001.000000,2001.000000 
	C1755.500000,2001.000000 1510.000000,2001.000000 1264.000000,2001.000000 
M1258.963623,1529.437622 
	C1258.719238,1528.642944 1258.454712,1527.853760 1258.233398,1527.052734 
	C1192.838257,1290.366455 1127.446411,1053.679443 1062.043701,816.995300 
	C1061.660400,815.608459 1061.125000,814.263611 1060.694702,812.998779 
	C1023.361023,812.998779 986.391113,812.998779 949.158142,812.998779 
	C876.326172,1066.751709 803.522644,1320.405396 730.573120,1574.567871 
	C752.049744,1574.567871 772.701904,1574.472656 793.351624,1574.656616 
	C797.030090,1574.689331 798.367676,1573.580444 799.354492,1569.997925 
	C814.586670,1514.701660 830.066040,1459.473511 845.276794,1404.171387 
	C846.427185,1399.988892 848.120972,1398.864990 852.328003,1398.870361 
	C951.491943,1398.995483 1050.656128,1398.967285 1149.820312,1398.967285 
	C1151.475830,1398.967285 1153.131348,1398.967285 1154.965454,1398.967285 
	C1155.401245,1400.425415 1155.804565,1401.676025 1156.149292,1402.942627 
	C1171.343018,1458.770508 1186.552124,1514.594238 1201.658936,1570.445679 
	C1202.407837,1573.213867 1203.146729,1574.679810 1206.486694,1574.652100 
	C1226.984741,1574.482300 1247.484863,1574.570557 1267.984375,1574.554199 
	C1268.920532,1574.553467 1269.856567,1574.375488 1271.336670,1574.224609 
	C1267.189941,1559.296997 1263.153320,1544.765747 1258.963623,1529.437622 
M858.294373,583.713257 
	C850.835266,596.686584 843.362366,609.652039 835.922546,622.636414 
	C832.036316,629.418701 834.108032,632.925598 842.028992,632.926392 
	C947.976685,632.936523 1053.924316,632.936157 1159.872070,632.927307 
	C1168.037354,632.926636 1170.020996,629.426819 1165.892456,622.275085 
	C1129.397949,559.055542 1092.892090,495.842621 1056.376709,432.635193 
	C1052.293579,425.567261 1048.329224,425.624359 1044.198975,432.790741 
	C1030.748535,456.129150 1017.320312,479.480347 1003.875916,502.822235 
	C1003.014893,504.316986 1002.089783,505.774811 1000.922546,507.698059 
	C999.638062,505.540802 998.781250,504.137360 997.958252,502.714325 
	C984.388733,479.250977 970.834473,455.778778 957.250000,432.324066 
	C953.432922,425.733673 949.450195,425.717560 945.658569,432.291107 
	C916.664856,482.557220 887.691345,532.834961 858.294373,583.713257 
z"/>
<path fill="#F6D55A" opacity="1.000000" stroke="none" 
	d="
M1259.040161,1529.836060 
	C1263.153320,1544.765747 1267.189941,1559.296997 1271.336670,1574.224609 
	C1269.856567,1574.375488 1268.920532,1574.553467 1267.984375,1574.554199 
	C1247.484863,1574.570557 1226.984741,1574.482300 1206.486694,1574.652100 
	C1203.146729,1574.679810 1202.407837,1573.213867 1201.658936,1570.445679 
	C1186.552124,1514.594238 1171.343018,1458.770508 1156.149292,1402.942627 
	C1155.804565,1401.676025 1155.401245,1400.425415 1154.965454,1398.967285 
	C1153.131348,1398.967285 1151.475830,1398.967285 1149.820312,1398.967285 
	C1050.656128,1398.967285 951.491943,1398.995483 852.328003,1398.870361 
	C848.120972,1398.864990 846.427185,1399.988892 845.276794,1404.171387 
	C830.066040,1459.473511 814.586670,1514.701660 799.354492,1569.997925 
	C798.367676,1573.580444 797.030090,1574.689331 793.351624,1574.656616 
	C772.701904,1574.472656 752.049744,1574.567871 730.573120,1574.567871 
	C803.522644,1320.405396 876.326172,1066.751709 949.158142,812.998779 
	C986.391113,812.998779 1023.361023,812.998779 1060.694702,812.998779 
	C1061.125000,814.263611 1061.660400,815.608459 1062.043701,816.995300 
	C1127.446411,1053.679443 1192.838257,1290.366455 1258.233398,1527.052734 
	C1258.454712,1527.853760 1258.719238,1528.642944 1259.040161,1529.836060 
M895.499939,1340.817627 
	C976.853882,1340.817627 1058.207764,1340.817627 1139.877441,1340.817627 
	C1139.313354,1338.511597 1138.950806,1336.899170 1138.524292,1335.303833 
	C1107.700195,1220.007935 1076.864502,1104.714966 1046.045898,989.417603 
	C1035.916138,951.520630 1025.853760,913.605591 1015.643982,875.730164 
	C1015.170593,873.973999 1013.656433,871.248108 1012.451660,871.151062 
	C1006.534790,870.674500 1000.558716,870.934692 994.581848,870.934692 
	C950.725769,1027.741211 907.012817,1184.036133 863.163696,1340.817627 
	C874.193787,1340.817627 884.346802,1340.817627 895.499939,1340.817627 
z"/>
<path fill="#F2D258" opacity="1.000000" stroke="none" 
	d="
M858.502991,583.411133 
	C887.691345,532.834961 916.664856,482.557220 945.658569,432.291107 
	C949.450195,425.717560 953.432922,425.733673 957.250000,432.324066 
	C970.834473,455.778778 984.388733,479.250977 997.958252,502.714325 
	C998.781250,504.137360 999.638062,505.540802 1000.922546,507.698059 
	C1002.089783,505.774811 1003.014893,504.316986 1003.875916,502.822235 
	C1017.320312,479.480347 1030.748535,456.129150 1044.198975,432.790741 
	C1048.329224,425.624359 1052.293579,425.567261 1056.376709,432.635193 
	C1092.892090,495.842621 1129.397949,559.055542 1165.892456,622.275085 
	C1170.020996,629.426819 1168.037354,632.926636 1159.872070,632.927307 
	C1053.924316,632.936157 947.976685,632.936523 842.028992,632.926392 
	C834.108032,632.925598 832.036316,629.418701 835.922546,622.636414 
	C843.362366,609.652039 850.835266,596.686584 858.502991,583.411133 
M1012.106140,527.301392 
	C1029.655029,557.670532 1047.242554,588.017578 1064.685669,618.447388 
	C1066.211792,621.109985 1067.822998,622.079712 1070.890137,622.064819 
	C1097.033325,621.937744 1123.177490,621.996399 1149.321289,621.978394 
	C1150.535889,621.977539 1151.750244,621.778076 1153.512085,621.622925 
	C1119.057617,561.951538 1084.920166,502.828949 1050.534180,443.275909 
	C1049.324829,445.253510 1048.348267,446.774323 1047.445801,448.337799 
	C1035.561279,468.924500 1023.954773,489.679260 1011.647949,510.010071 
	C1007.934082,516.145264 1006.875610,521.116394 1012.106140,527.301392 
M934.343933,472.882690 
	C905.797852,522.372864 877.251770,571.863037 848.337158,621.992065 
	C850.598267,621.992065 851.897522,621.992065 853.196716,621.992065 
	C879.029114,621.992065 904.862122,621.908447 930.693237,622.089661 
	C934.235840,622.114441 935.960266,620.839905 937.622559,617.935608 
	C955.886414,586.026489 974.237976,554.167236 992.701965,522.373596 
	C994.394958,519.458313 994.531677,517.309448 992.797485,514.347900 
	C979.852417,492.240662 967.088806,470.027191 954.260437,447.851532 
	C953.452820,446.455566 952.579224,445.097748 951.466675,443.282227 
	C945.713806,453.267731 940.237549,462.773102 934.343933,472.882690 
M1031.692261,581.862244 
	C1021.586975,564.400757 1011.481750,546.939331 1000.989319,528.808899 
	C982.852722,560.239746 965.222534,590.793030 947.367371,621.736145 
	C983.461548,621.736145 1018.670654,621.736145 1054.662109,621.736145 
	C1046.915039,608.312134 1039.471069,595.413635 1031.692261,581.862244 
z"/>
<path fill="#010100" opacity="1.000000" stroke="none" 
	d="
M894.999878,1340.817627 
	C884.346802,1340.817627 874.193787,1340.817627 863.163696,1340.817627 
	C907.012817,1184.036133 950.725769,1027.741211 994.581848,870.934692 
	C1000.558716,870.934692 1006.534790,870.674500 1012.451660,871.151062 
	C1013.656433,871.248108 1015.170593,873.973999 1015.643982,875.730164 
	C1025.853760,913.605591 1035.916138,951.520630 1046.045898,989.417603 
	C1076.864502,1104.714966 1107.700195,1220.007935 1138.524292,1335.303833 
	C1138.950806,1336.899170 1139.313354,1338.511597 1139.877441,1340.817627 
	C1058.207764,1340.817627 976.853882,1340.817627 894.999878,1340.817627 
z"/>
<path fill="#010100" opacity="1.000000" stroke="none" 
	d="
M1011.943115,526.967651 
	C1006.875610,521.116394 1007.934082,516.145264 1011.647949,510.010071 
	C1023.954773,489.679260 1035.561279,468.924500 1047.445801,448.337799 
	C1048.348267,446.774323 1049.324829,445.253510 1050.534180,443.275909 
	C1084.920166,502.828949 1119.057617,561.951538 1153.512085,621.622925 
	C1151.750244,621.778076 1150.535889,621.977539 1149.321289,621.978394 
	C1123.177490,621.996399 1097.033325,621.937744 1070.890137,622.064819 
	C1067.822998,622.079712 1066.211792,621.109985 1064.685669,618.447388 
	C1047.242554,588.017578 1029.655029,557.670532 1011.943115,526.967651 
z"/>
<path fill="#010100" opacity="1.000000" stroke="none" 
	d="
M934.552612,472.580566 
	C940.237549,462.773102 945.713806,453.267731 951.466675,443.282227 
	C952.579224,445.097748 953.452820,446.455566 954.260437,447.851532 
	C967.088806,470.027191 979.852417,492.240662 992.797485,514.347900 
	C994.531677,517.309448 994.394958,519.458313 992.701965,522.373596 
	C974.237976,554.167236 955.886414,586.026489 937.622559,617.935608 
	C935.960266,620.839905 934.235840,622.114441 930.693237,622.089661 
	C904.862122,621.908447 879.029114,621.992065 853.196716,621.992065 
	C851.897522,621.992065 850.598267,621.992065 848.337158,621.992065 
	C877.251770,571.863037 905.797852,522.372864 934.552612,472.580566 
z"/>
<path fill="#010100" opacity="1.000000" stroke="none" 
	d="
M1031.859741,582.188721 
	C1039.471069,595.413635 1046.915039,608.312134 1054.662109,621.736145 
	C1018.670654,621.736145 983.461548,621.736145 947.367371,621.736145 
	C965.222534,590.793030 982.852722,560.239746 1000.989319,528.808899 
	C1011.481750,546.939331 1021.586975,564.400757 1031.859741,582.188721 
z"/>
</svg>